<?xml version="1.0" standalone="no"?>
<!DOCTYPE svg PUBLIC "-//W3C//DTD SVG 20010904//EN"
 "http://www.w3.org/TR/2001/REC-SVG-20010904/DTD/svg10.dtd">
<svg version="1.0" xmlns="http://www.w3.org/2000/svg"
 width="600.000000pt" height="600.000000pt" viewBox="0 0 600.000000 600.000000"
 preserveAspectRatio="xMidYMid meet">

<g transform="translate(0.000000,600.000000) scale(0.100000,-0.100000)"
fill="#000000" stroke="none">
<path d="M3609 5876 c-26 -15 -66 -64 -153 -188 -26 -37 -76 -96 -111 -132
-101 -101 -283 -213 -194 -120 40 43 41 43 -81 -21 -82 -42 -111 -65 -215
-170 -66 -66 -147 -151 -180 -190 -86 -101 -180 -185 -215 -191 -30 -6 -115
-87 -140 -134 -7 -13 16 6 51 43 36 37 70 67 76 67 7 0 -10 -21 -37 -46 -74
-69 -100 -129 -100 -228 0 -84 21 -198 60 -327 14 -47 20 -84 16 -95 -7 -16
-11 -13 -26 22 -32 73 -48 70 -80 -14 l-20 -51 52 2 c51 2 52 2 61 -33 26 -94
82 -259 99 -295 50 -101 91 -131 152 -114 47 13 51 32 37 182 -7 67 -14 210
-18 317 -9 290 13 447 81 595 83 180 175 218 481 196 161 -12 484 -52 563 -71
23 -5 59 -10 80 -10 21 0 65 -5 97 -11 57 -10 58 -10 81 18 l24 28 24 -28 c53
-59 103 -276 141 -616 23 -201 36 -211 29 -21 -6 202 -20 356 -45 508 -22 132
-19 186 10 224 18 23 51 83 51 92 0 3 -21 -15 -46 -39 -56 -55 -80 -60 -32 -7
49 54 73 99 97 176 25 80 22 99 -4 29 -33 -91 -94 -176 -154 -218 -60 -41 -56
-29 9 32 87 81 93 95 92 234 -1 88 3 137 18 195 l20 78 -28 46 c-33 54 -119
110 -170 110 -29 0 -33 -3 -27 -17 11 -28 14 -133 6 -178 -7 -34 -9 -25 -12
52 -2 50 -1 89 4 86 33 -21 -48 91 -100 137 -100 87 -257 134 -324 96z m-89
-420 c0 -35 -7 -46 -54 -92 -59 -57 -138 -102 -225 -128 -76 -22 -111 -21
-111 3 0 30 42 73 151 156 173 132 239 149 239 61z m460 -246 c-6 -11 -13 -20
-16 -20 -2 0 0 9 6 20 6 11 13 20 16 20 2 0 0 -9 -6 -20z m-50 -73 c0 -2 -10
-12 -22 -23 l-23 -19 19 23 c18 21 26 27 26 19z m-1235 -310 c-32 -70 -63
-173 -90 -307 l-13 -65 6 105 c4 58 6 119 5 135 -1 17 -3 56 -4 87 -2 37 1 62
9 70 11 11 93 45 114 47 4 1 -8 -32 -27 -72z"/>
<path d="M3805 4853 c-63 -17 -76 -98 -25 -156 l29 -34 -23 -34 c-50 -74 -66
-165 -56 -321 2 -31 8 -54 12 -52 4 3 8 -7 8 -23 0 -15 12 -59 25 -98 14 -38
25 -71 25 -72 0 -1 -13 0 -29 3 -34 7 -49 -10 -27 -32 28 -27 19 -69 -22 -114
-28 -28 -47 -40 -68 -40 -16 -1 -40 -7 -53 -14 -24 -13 -24 -14 -3 -25 11 -6
27 -11 35 -11 8 0 53 -20 101 -43 l85 -44 -100 -13 c-106 -13 -205 -9 -323 15
-85 18 -105 32 -76 52 61 43 -56 39 -121 -4 -45 -30 -53 -47 -36 -81 15 -34
47 -39 72 -12 27 30 39 25 81 -30 71 -93 162 -150 279 -175 113 -23 199 6 278
96 40 45 47 50 66 40 25 -14 26 -21 7 -65 -38 -90 -192 -221 -326 -277 -49
-21 -71 -23 -192 -23 -82 1 -142 5 -150 12 -8 6 -39 8 -80 5 -55 -5 -68 -9
-68 -23 0 -9 16 -24 36 -33 19 -10 32 -22 29 -27 -3 -6 -1 -10 4 -10 21 0 10
-20 -30 -58 -34 -31 -41 -43 -36 -63 8 -32 95 -134 116 -135 9 -1 42 -2 73 -3
48 -1 58 -4 63 -22 4 -11 9 -19 11 -16 6 5 -34 107 -48 124 -8 10 -18 2 -41
-33 -33 -51 -37 -49 -51 26 l-6 35 64 2 c61 2 65 1 76 -26 12 -29 81 -71 116
-71 10 0 32 -7 48 -15 15 -8 33 -12 40 -9 6 3 -16 -19 -49 -50 -33 -30 -72
-61 -87 -68 -15 -7 -24 -16 -22 -20 12 -20 50 -4 113 47 38 30 74 55 82 55 8
0 23 7 33 15 14 11 23 12 33 4 10 -9 14 -7 19 7 7 21 84 104 95 104 4 0 -6
-27 -22 -60 -33 -69 -38 -89 -10 -45 23 37 71 83 71 67 0 -6 12 -12 28 -14 18
-2 27 -8 26 -20 -1 -15 1 -15 25 2 14 11 42 22 61 25 31 5 33 4 15 -7 -65 -43
-118 -134 -148 -258 -27 -110 -45 -306 -39 -437 2 -60 22 -72 44 -25 17 35 57
43 65 12 4 -15 8 -18 13 -9 10 16 48 5 91 -26 19 -14 53 -37 76 -52 33 -22 44
-36 48 -63 4 -19 13 -54 22 -78 22 -63 10 -131 -30 -169 -30 -28 -150 -103
-165 -103 -14 0 -117 -45 -124 -54 -3 -5 -18 -2 -33 8 -22 14 -26 24 -23 54 3
32 9 40 58 69 30 18 50 33 44 33 -5 0 -35 -15 -65 -33 -30 -18 -61 -31 -68
-29 -8 3 -11 0 -7 -6 4 -7 -10 -15 -36 -22 -24 -6 -50 -13 -58 -15 -8 -2 -35
-5 -60 -7 l-45 -3 -5 -100 c-5 -95 -6 -100 -28 -103 -12 -2 -20 -8 -17 -13 9
-14 36 -11 55 6 24 22 143 37 153 19 57 -98 150 -159 227 -150 25 3 56 8 70
11 20 5 19 3 -7 -12 -18 -9 -33 -21 -33 -27 0 -11 3 -30 38 -230 l19 -108 -31
-13 c-17 -7 -38 -15 -46 -18 -12 -4 -12 -6 1 -6 27 -1 141 37 178 60 33 20 35
20 48 3 7 -10 13 -24 13 -30 0 -19 65 -34 140 -34 58 1 63 2 47 15 -11 7 -26
11 -35 8 -10 -4 -13 -2 -8 5 4 7 0 15 -11 19 -34 12 -69 61 -67 93 1 16 -2 33
-7 36 -14 8 -10 34 5 34 9 0 12 7 9 19 -3 11 3 27 14 38 19 19 20 19 31 -45
14 -85 58 -171 101 -199 19 -13 39 -23 45 -23 6 0 -3 9 -20 19 -68 42 -101
117 -111 260 -5 70 -4 83 8 77 8 -3 21 -9 29 -12 9 -3 26 -28 39 -56 18 -39
27 -49 42 -45 14 4 19 0 19 -16 1 -39 38 -106 65 -119 30 -14 86 -2 276 58
119 38 151 58 178 115 25 52 7 50 -19 -2 -25 -48 -51 -61 -230 -115 -171 -51
-192 -53 -219 -18 -15 19 -21 39 -19 63 3 32 6 36 28 34 14 -2 57 -5 96 -9 49
-5 73 -3 78 5 4 7 0 11 -11 11 -10 0 -34 6 -53 13 l-35 12 3 80 c2 44 5 81 7
83 2 2 10 0 17 -4 7 -5 23 -9 36 -10 12 0 28 -9 36 -19 13 -18 86 -30 86 -14
0 13 43 6 60 -10 10 -10 15 -10 18 -2 3 9 7 9 18 0 10 -8 14 -8 14 0 0 6 13
25 30 42 16 18 27 36 23 42 -4 6 0 8 11 4 9 -4 15 -3 12 1 -8 13 23 52 39 52
26 0 43 44 50 133 4 48 4 87 0 87 -3 0 -16 -11 -28 -24 -12 -14 -38 -33 -57
-44 l-35 -19 4 46 c4 42 5 43 11 16 6 -30 6 -30 13 -5 13 50 -24 222 -42 192
-9 -15 -60 -34 -96 -36 -17 -1 -36 -5 -43 -10 -6 -4 -16 -5 -21 -1 -5 3 -15
-1 -23 -8 -7 -7 -19 -12 -25 -11 -7 1 -22 2 -32 3 -11 0 -29 16 -40 35 -22 35
-26 47 -13 44 14 -3 85 15 136 34 28 11 70 26 93 34 23 9 53 27 67 41 16 15
30 22 38 17 10 -6 10 -4 -1 9 -9 12 -10 17 -2 17 7 0 9 5 5 11 -4 7 -9 31 -11
55 -2 35 0 44 17 49 33 11 41 109 8 104 -33 -4 -39 2 -36 33 4 38 33 51 43 19
3 -12 11 -21 16 -21 17 0 9 22 -15 41 -26 21 -44 93 -32 126 6 15 9 15 17 3 9
-13 10 -13 6 1 -3 9 0 22 6 29 7 7 -3 3 -20 -9 -45 -30 -41 -22 12 31 33 34
46 55 51 87 l7 43 92 -7 c103 -7 143 5 197 62 129 136 145 583 25 711 -57 61
-115 67 -179 18 -87 -67 -136 -200 -148 -406 -4 -69 -8 -111 -9 -95 -2 28 -3
29 -11 8 -5 -13 -12 -23 -14 -23 -3 0 -3 7 0 15 9 21 -5 38 -20 25 -7 -5 -24
-10 -37 -10 -61 0 -187 9 -229 16 -25 4 -57 6 -72 5 -16 -1 -28 2 -28 8 0 12
-57 41 -82 41 -11 0 -22 9 -25 20 -6 23 -19 26 -26 8 -2 -7 -2 23 1 67 5 84
42 192 62 180 5 -3 10 1 10 9 0 9 14 22 30 31 17 9 30 19 30 24 0 5 18 16 39
25 22 8 45 24 50 35 9 16 7 20 -14 25 -22 6 -24 9 -14 27 18 34 74 51 156 47
40 -2 73 -2 73 0 0 2 -24 14 -52 27 -63 29 -99 31 -153 7 -32 -15 -53 -17
-105 -11 -61 6 -68 5 -107 -21 -23 -16 -43 -25 -45 -20 -2 5 -57 13 -123 19
l-120 10 -30 -37 c-16 -20 -45 -52 -63 -71 -28 -30 6 17 68 95 5 7 6 15 3 18
-4 3 -1 6 5 6 6 0 9 6 6 13 -2 7 2 32 11 56 8 24 18 80 21 125 l6 81 -46 63
c-26 35 -53 65 -61 69 -22 8 -58 -4 -83 -28 -35 -32 -90 -29 -120 8 -13 15
-28 40 -34 55 -5 15 -17 29 -26 31 -9 2 16 7 56 11 81 9 96 19 112 74 14 51
13 70 -7 124 -25 70 -69 108 -133 116 l-53 7 46 43 c26 23 55 42 66 42 32 0
92 -60 117 -117 13 -28 28 -81 34 -116 10 -54 9 -70 -5 -103 -15 -38 -15 -38
2 -21 37 36 17 195 -40 327 -12 26 7 44 32 31 26 -14 26 -10 1 39 -11 22 -38
51 -60 65 -46 29 -50 46 -17 64 20 10 31 10 62 -3 50 -21 65 -15 64 26 -2 75
-51 147 -122 178 -43 19 -166 33 -202 23z m-34 -380 c-12 -20 -14 -14 -5 12 4
9 9 14 11 11 3 -2 0 -13 -6 -23z m-24 -130 c-3 -10 -5 -2 -5 17 0 19 2 27 5
18 2 -10 2 -26 0 -35z m55 -95 c-11 -11 -32 -3 -32 12 0 12 34 18 39 7 2 -5
-1 -13 -7 -19z m74 -306 c4 -23 2 -38 -7 -48 -12 -11 -14 -7 -14 29 0 23 -4
53 -8 67 -8 24 -7 24 7 6 9 -11 19 -35 22 -54z m218 -143 c12 -23 14 -46 10
-85 -4 -30 -11 -54 -15 -54 -5 0 -9 -9 -9 -20 0 -11 -5 -20 -11 -20 -6 0 -19
-10 -28 -21 -15 -19 -22 -20 -47 -12 l-29 11 27 10 c16 7 26 18 25 29 -1 15 6
53 29 171 6 32 30 27 48 -9z m-589 -89 c55 -6 134 -16 175 -22 41 -6 97 -11
124 -11 47 0 48 0 24 -13 -104 -54 -378 -29 -455 42 l-28 25 30 -5 c17 -3 75
-10 130 -16z m939 -507 c-13 -117 -11 -113 -52 -112 -34 2 -35 2 -7 6 38 6 45
17 45 75 0 43 7 78 16 78 2 0 1 -21 -2 -47z m-101 -100 c-7 -2 -19 -2 -25 0
-7 3 -2 5 12 5 14 0 19 -2 13 -5z m629 -145 c-7 -7 -12 -8 -12 -2 0 6 3 14 7
17 3 4 9 5 12 2 2 -3 -1 -11 -7 -17z m-929 -163 c49 -39 51 -41 67 -64 8 -11
22 -21 30 -21 16 0 60 -42 60 -58 0 -4 17 -15 38 -24 34 -15 94 -47 132 -70 8
-5 23 -11 33 -14 9 -4 17 -10 17 -15 0 -5 6 -9 13 -9 8 0 14 -7 14 -15 0 -10
-10 -14 -31 -13 -17 1 -46 -7 -64 -16 -18 -9 -38 -14 -44 -10 -7 5 -8 3 -3 -6
6 -10 4 -12 -7 -7 -9 3 -19 2 -24 -2 -15 -14 -64 -22 -64 -11 0 5 -4 10 -10
10 -5 0 -7 -8 -4 -17 4 -11 3 -14 -3 -7 -4 6 -23 19 -41 28 -18 9 -36 24 -39
32 -3 7 -11 14 -18 14 -8 0 -20 6 -27 14 -8 7 -24 17 -36 20 -12 4 -22 14 -22
22 0 7 -17 25 -38 39 -62 41 -85 80 -78 128 4 23 16 61 26 84 l19 44 36 -16
c20 -8 51 -26 68 -40z m1184 -51 c-3 -3 -12 -4 -19 -1 -8 3 -5 6 6 6 11 1 17
-2 13 -5z m-644 -39 c14 -14 35 -45 46 -68 12 -23 19 -31 15 -18 -4 16 -3 21
5 17 6 -4 11 -1 11 6 0 10 3 9 9 -2 6 -8 7 -18 5 -22 -3 -4 -1 -8 4 -8 7 0 21
-21 41 -64 2 -5 -4 -6 -14 -2 -17 6 -17 5 0 -20 9 -14 14 -28 12 -31 -3 -2
-17 15 -32 39 -17 28 -24 34 -20 18 15 -54 36 -74 99 -94 23 -8 17 -15 -15
-21 -52 -11 -95 38 -139 156 -11 31 -34 75 -50 98 -34 47 -19 57 23 16z m-49
-30 c12 -49 88 -195 118 -227 16 -18 48 -52 69 -75 32 -35 38 -47 33 -69 -5
-19 -11 -24 -25 -21 -11 3 -19 0 -20 -6 0 -7 -4 -3 -9 8 -8 18 -9 17 -9 -6
l-1 -27 68 13 c37 7 69 11 71 9 2 -2 10 1 18 7 10 9 13 8 13 0 0 -7 10 -11 22
-9 11 2 23 -3 26 -11 3 -8 0 -11 -7 -7 -6 4 -35 -4 -64 -18 -28 -14 -76 -27
-106 -29 l-53 -4 -34 -63 c-37 -69 -59 -97 -89 -112 -15 -8 -14 -4 7 18 15 16
36 50 48 76 19 44 19 49 5 90 -8 24 -18 70 -21 103 -9 97 -12 105 -49 121 -19
8 -38 14 -42 14 -15 0 -22 -174 -8 -204 8 -19 7 -19 -26 1 -143 87 -191 92
-279 29 -47 -34 -51 -35 -45 -14 39 129 251 241 387 203 l23 -6 -23 20 c-13
11 -17 21 -11 23 7 2 -15 28 -48 58 -60 53 -60 55 -45 80 29 47 45 60 72 60
21 0 29 -6 34 -25z m466 -41 c-9 -37 -32 -69 -62 -85 -16 -9 -17 -7 -7 15 7
14 17 24 23 23 6 -1 11 7 11 18 1 11 6 19 13 18 7 -2 12 2 12 7 0 6 -5 10 -12
10 -9 0 17 27 28 30 1 0 -2 -16 -6 -36z m-633 -355 c34 -12 83 -58 83 -76 0
-7 -11 -15 -25 -19 -14 -3 -22 -11 -19 -18 3 -6 -1 -3 -10 8 -71 88 -92 98
-153 76 l-28 -10 30 25 c32 27 75 32 122 14z m581 -113 c8 -41 -7 -63 -45 -69
-73 -12 -104 13 -66 51 38 38 105 49 111 18z m-668 -101 c0 -11 -14 7 -31 40
-7 13 -3 12 10 -5 11 -14 21 -29 21 -35z m-30 -195 c-17 -42 -82 -95 -138
-114 -64 -22 -77 -19 -17 4 55 22 117 75 141 122 20 38 31 29 14 -12z m689 3
c-11 -13 -11 -17 -1 -20 6 -3 12 -11 12 -19 0 -9 -4 -13 -9 -10 -5 4 -7 -4 -3
-16 5 -21 4 -22 -12 -9 -9 8 -19 11 -23 7 -3 -3 -2 -6 4 -6 6 0 13 -6 16 -13
6 -17 -54 -10 -65 7 -5 8 -8 7 -8 -1 0 -21 -38 -15 -45 7 -10 33 -38 21 -42
-18 -2 -16 1 -21 10 -16 8 5 8 2 -2 -9 -15 -18 -26 -23 -16 -7 3 6 2 10 -4 10
-5 0 -11 -10 -14 -22 -2 -13 -4 -1 -4 25 0 54 5 59 117 91 30 9 62 21 70 26
24 15 34 12 19 -7z m-224 -61 c-3 -7 -5 -23 -5 -35 -1 -17 -2 -19 -9 -7 -21
37 -21 56 -1 56 13 0 19 -5 15 -14z m0 -144 c29 -29 27 -35 -7 -17 -20 11 -58
81 -58 109 0 8 9 -3 19 -25 10 -22 31 -52 46 -67z m-860 -109 c25 -12 52 -30
59 -40 7 -10 15 -17 17 -15 2 3 3 -13 1 -35 -4 -34 -7 -39 -29 -39 -13 0 -34
5 -46 11 -32 17 -87 70 -103 101 -13 26 -13 27 14 31 15 2 30 5 35 6 4 0 28
-9 52 -20z m189 -171 c-16 -18 -17 -21 -2 -15 12 4 15 2 12 -8 -3 -7 7 -20 25
-31 24 -14 33 -30 47 -82 10 -35 18 -82 18 -105 1 -36 -3 -44 -33 -64 -19 -13
-39 -23 -46 -23 -7 0 -19 39 -30 98 -10 53 -23 127 -30 163 l-12 66 26 11 c40
16 46 14 25 -10z"/>
<path d="M3221 4829 c-109 -21 -217 -69 -277 -121 -68 -60 -91 -153 -44 -178
14 -7 33 0 84 35 83 55 171 84 301 97 55 5 107 13 115 17 19 10 25 83 10 111
-23 44 -94 58 -189 39z m-189 -93 c-35 -19 -69 -38 -75 -43 -7 -4 -1 2 13 15
27 24 98 62 115 62 6 0 -18 -16 -53 -34z"/>
<path d="M2271 4649 c-7 -12 -10 -23 -8 -26 3 -3 11 5 17 17 15 28 8 35 -9 9z"/>
<path d="M2226 4555 c-30 -78 -52 -267 -39 -328 6 -29 8 -15 9 65 1 71 8 129
23 187 12 46 20 85 18 88 -3 2 -7 -3 -11 -12z"/>
<path d="M3160 4531 c-74 -24 -148 -88 -175 -153 -18 -45 -19 -51 -3 -42 8 5
9 2 5 -10 -4 -10 -7 -21 -7 -24 0 -4 -4 -2 -8 5 -4 6 -8 -35 -10 -90 -1 -57 2
-109 8 -117 7 -11 10 5 10 55 0 99 14 136 71 199 129 142 325 103 385 -77 9
-26 18 -46 21 -43 9 9 -28 105 -57 145 -35 48 -100 87 -159 97 l-44 7 47 15
c26 8 43 19 39 23 -13 13 -95 19 -123 10z"/>
<path d="M1060 4450 c-69 -5 -186 -13 -260 -18 -147 -10 -172 -18 -194 -61
-15 -28 -9 -57 48 -231 8 -25 33 -103 56 -175 23 -71 47 -148 55 -170 8 -22
33 -101 56 -175 23 -74 65 -207 94 -295 30 -88 79 -247 109 -353 31 -107 61
-202 66 -212 12 -23 13 -43 1 -36 -4 3 -19 38 -31 78 -77 248 -154 490 -240
753 -120 367 -170 528 -170 548 0 9 -14 50 -31 92 -17 44 -31 98 -32 126 -1
27 -5 49 -9 49 -4 0 -15 -14 -24 -32 -20 -39 -14 -108 21 -216 13 -43 38 -125
54 -184 17 -59 35 -116 41 -127 11 -21 105 -304 141 -425 11 -39 27 -86 35
-104 31 -71 7 -144 -57 -177 -22 -12 -34 -13 -52 -5 -20 10 -12 3 66 -66 14
-12 30 -14 65 -10 54 7 91 -7 108 -43 18 -35 -11 -108 -51 -128 -16 -9 -38
-22 -47 -30 -10 -9 -26 -13 -38 -10 -29 8 -25 -16 10 -57 34 -38 90 -68 129
-68 52 0 71 -9 87 -39 30 -60 2 -119 -57 -119 -20 0 -21 -2 -9 -14 18 -18 76
-34 67 -19 -4 6 0 16 8 23 12 10 15 10 15 -1 0 -11 22 -14 102 -14 85 0 153
-7 153 -15 0 -1 43 -4 96 -7 60 -3 119 0 155 8 33 7 66 13 74 15 22 3 162 63
177 75 15 13 61 4 84 -17 8 -8 37 -17 62 -20 l47 -7 1 39 c2 63 -1 85 -21 154
-20 69 -46 114 -60 105 -4 -2 -18 23 -30 58 -52 149 -96 259 -140 357 -27 58
-62 148 -80 200 -18 52 -36 104 -41 115 -24 55 -70 188 -165 470 -57 170 -115
326 -129 347 -47 71 -100 83 -315 68z m252 -40 c22 -18 22 -18 -27 -17 -83 0
-93 -2 -98 -20 -3 -10 -5 -4 -6 13 0 17 2 33 5 37 14 14 105 5 126 -13z m-553
-46 c-33 -18 -89 -18 -89 0 0 11 14 16 48 18 59 4 71 -1 41 -18z m587 -11 c-3
-25 -8 -28 -44 -31 -23 -2 -49 1 -58 6 -28 15 8 40 56 38 22 0 40 2 40 7 0 4
2 7 4 7 3 0 3 -12 2 -27z m-522 -32 c-3 -3 -15 6 -27 18 l-22 24 27 -19 c14
-10 24 -21 22 -23z m261 9 c-67 -10 -249 -21 -243 -14 6 6 186 21 253 21 38 1
37 0 -10 -7z m-302 -27 c3 -16 3 -30 1 -32 -6 -6 -33 32 -34 47 0 24 28 11 33
-15z m-73 -8 c0 -27 -9 -32 -28 -13 -10 10 -15 10 -22 -2 -6 -9 -10 -10 -10
-3 0 26 14 43 36 43 19 0 24 -5 24 -25z m501 -62 c14 -38 11 -56 -9 -51 -10 3
-41 2 -70 -2 -45 -6 -54 -4 -72 15 -24 25 -18 55 11 55 10 0 19 -5 19 -10 0
-10 30 -8 63 5 12 5 17 2 17 -11 0 -14 3 -15 12 -6 8 8 8 15 -2 27 -11 13 -10
14 4 9 10 -4 22 -18 27 -31z m-277 3 c-4 -11 4 -16 28 -18 26 -2 34 -8 36 -27
3 -18 0 -22 -11 -18 -9 3 -18 1 -20 -6 -3 -9 -8 -8 -20 2 -12 9 -17 10 -17 2
0 -7 -4 -9 -10 -6 -5 3 -10 15 -10 26 0 10 -7 19 -15 19 -22 0 -18 14 8 26 31
16 37 16 31 0z m473 -18 c-3 -8 -6 -5 -6 6 -1 11 2 17 5 13 3 -3 4 -12 1 -19z
m-377 -18 c0 -16 -4 -30 -9 -30 -5 0 -11 14 -13 30 -3 20 0 30 9 30 8 0 13
-12 13 -30z m410 -69 c-1 -13 -29 45 -29 59 0 8 6 0 14 -19 8 -18 15 -36 15
-40z m-840 39 c0 -5 -2 -10 -4 -10 -3 0 -8 5 -11 10 -3 6 -1 10 4 10 6 0 11
-4 11 -10z m606 -77 c45 -33 92 -85 103 -116 38 -101 -32 -217 -131 -217 -102
0 -218 122 -220 229 -1 67 44 124 103 133 45 6 115 -8 145 -29z m282 -108 c0
-5 -6 4 -13 20 -8 17 -14 37 -14 45 0 8 7 -1 14 -20 7 -19 13 -39 13 -45z
m-178 -270 c0 -8 -4 -15 -10 -15 -5 0 3 -12 17 -26 23 -23 24 -27 10 -41 -16
-16 -47 -12 -47 6 0 6 7 8 15 5 24 -10 17 12 -7 23 -18 8 -27 6 -42 -8 -10
-10 -15 -22 -12 -28 9 -14 -63 -26 -83 -14 -9 5 -22 22 -29 37 -12 24 -12 30
4 47 21 23 42 25 51 3 5 -15 7 -15 15 0 10 17 58 22 58 6 0 -5 5 -10 10 -10 6
0 10 7 10 15 0 8 9 15 20 15 11 0 20 -7 20 -15z m66 -186 c52 -25 100 -77 126
-137 35 -78 9 -234 -51 -312 l-20 -25 -70 49 c-176 120 -256 265 -206 369 36
75 133 99 221 56z m459 -533 c27 -27 65 -141 65 -195 0 -20 -7 -46 -15 -57
-15 -22 -27 -25 -435 -85 -74 -10 -146 -21 -159 -23 -90 -14 -158 68 -195 236
-9 39 28 64 106 72 59 6 462 60 518 69 64 11 91 7 115 -17z m103 -192 c8 -93
-42 -148 -147 -159 -31 -3 -76 -8 -101 -11 -25 -3 -75 -7 -112 -8 -37 -1 -74
-8 -82 -15 -27 -23 -286 -61 -286 -43 0 10 38 16 145 26 22 1 74 12 115 24 41
11 111 23 155 26 137 11 242 36 270 63 31 32 40 78 25 134 -20 77 -20 85 -3
49 9 -19 18 -58 21 -86z"/>
<path d="M1198 4413 c7 -3 16 -2 19 1 4 3 -2 6 -13 5 -11 0 -14 -3 -6 -6z"/>
<path d="M1060 4226 c0 -2 8 -10 18 -17 15 -13 16 -12 3 4 -13 16 -21 21 -21
13z"/>
<path d="M1225 3690 c3 -5 8 -10 11 -10 2 0 4 5 4 10 0 6 -5 10 -11 10 -5 0
-7 -4 -4 -10z"/>
<path d="M1150 3671 c0 -11 4 -22 9 -25 11 -7 23 22 15 35 -9 16 -24 10 -24
-10z"/>
<path d="M1202 3660 c0 -19 2 -27 5 -17 2 9 2 25 0 35 -3 9 -5 1 -5 -18z"/>
<path d="M1250 3435 c-46 -49 -13 -127 89 -213 l49 -42 13 38 c6 20 15 42 19
47 49 68 -21 195 -109 195 -27 0 -44 -7 -61 -25z m120 -67 c14 -26 13 -29 -8
-50 l-23 -23 -25 28 c-24 28 -31 57 -17 71 16 15 58 0 73 -26z"/>
<path d="M1520 2882 c0 -6 10 -8 22 -4 17 4 20 2 15 -11 -3 -9 -1 -19 4 -23 7
-4 9 3 7 17 -2 16 -11 25 -25 27 -13 2 -23 -1 -23 -6z"/>
<path d="M1620 2880 c0 -5 6 -10 14 -10 8 0 17 -6 19 -12 4 -10 6 -10 6 -1 1
7 -8 17 -19 23 -14 7 -20 7 -20 0z"/>
<path d="M1670 2884 c0 -17 17 -36 24 -26 3 5 -1 15 -9 22 -8 7 -15 9 -15 4z"/>
<path d="M1471 2865 c0 -11 4 -27 9 -35 9 -13 10 -13 9 0 0 8 -4 24 -9 35 l-9
20 0 -20z"/>
<path d="M1590 2868 c0 -9 5 -20 10 -23 13 -8 13 5 0 25 -8 13 -10 13 -10 -2z"/>
<path d="M1440 2859 c0 -6 -7 -8 -17 -5 -15 6 -15 4 2 -14 10 -11 19 -20 19
-20 1 0 2 11 2 25 1 14 0 25 -2 25 -2 0 -4 -5 -4 -11z"/>
<path d="M1320 2829 c7 -11 14 -19 16 -16 7 7 -7 37 -17 37 -6 0 -5 -9 1 -21z"/>
<path d="M1353 2834 c-3 -8 -1 -20 4 -25 7 -7 11 -2 11 15 0 29 -6 33 -15 10z"/>
<path d="M1390 2830 c0 -11 4 -20 9 -20 5 0 7 9 4 20 -3 11 -7 20 -9 20 -2 0
-4 -9 -4 -20z"/>
<path d="M3170 4298 c-41 -20 -43 -22 -20 -26 36 -6 50 -21 50 -53 0 -29 -31
-59 -61 -59 -10 0 -27 12 -38 28 l-20 27 -2 -35 c-3 -87 24 -151 77 -182 28
-16 40 -17 110 -7 130 18 138 21 151 59 32 94 1 192 -75 241 -56 35 -108 37
-172 7z"/>
<path d="M4260 4105 c-8 -21 -7 -39 5 -74 8 -26 19 -74 23 -106 l8 -60 8 82
c8 85 2 135 -20 167 -13 18 -14 18 -24 -9z"/>
<path d="M2202 3937 c-17 -20 -2 -33 52 -46 27 -7 68 -25 92 -42 27 -18 45
-25 49 -18 4 6 13 8 21 5 23 -9 16 23 -11 50 -53 53 -176 84 -203 51z"/>
<path d="M4268 3633 c6 -2 18 -2 25 0 6 3 1 5 -13 5 -14 0 -19 -2 -12 -5z"/>
<path d="M4363 3623 c15 -2 37 -2 50 0 12 2 0 4 -28 4 -27 0 -38 -2 -22 -4z"/>
<path d="M2563 3524 c-12 -9 -43 -19 -70 -24 -46 -7 -46 -8 -11 -9 40 -1 118
25 118 40 0 13 -12 10 -37 -7z"/>
<path d="M1913 3335 c3 -49 13 -110 21 -135 l14 -45 1 50 c0 55 -24 203 -35
214 -4 3 -4 -34 -1 -84z"/>
<path d="M2680 3403 c1 -9 83 -76 142 -116 33 -22 35 -25 18 -30 -11 -3 -20
-2 -20 2 0 10 -52 35 -65 31 -5 -1 -16 -3 -23 -3 -7 0 -11 -6 -8 -13 2 -6 -4
-14 -15 -17 -10 -3 -19 -1 -19 5 0 5 -4 6 -10 3 -15 -9 -12 -115 5 -173 15
-48 67 -124 83 -120 4 1 41 -2 82 -7 41 -5 87 -8 103 -8 15 0 27 -4 27 -8 0
-16 21 -9 56 17 19 15 34 34 34 44 0 19 47 88 93 138 17 17 29 32 26 32 -36 1
-203 45 -263 69 -85 34 -114 51 -193 119 -29 24 -53 40 -53 35z m100 -153 c0
-5 -4 -10 -10 -10 -5 0 -10 5 -10 10 0 6 5 10 10 10 6 0 10 -4 10 -10z"/>
<path d="M2672 3350 c0 -14 2 -19 5 -12 2 6 2 18 0 25 -3 6 -5 1 -5 -13z"/>
<path d="M3102 3038 c-16 -20 -32 -89 -32 -139 0 -31 -5 -51 -17 -60 -45 -37
-111 -242 -127 -394 -11 -97 10 -50 23 54 13 102 41 193 89 286 l31 60 1 -37
c0 -27 4 -38 15 -38 8 0 15 4 15 9 0 12 90 107 91 95 1 -5 4 2 8 16 4 15 3 28
-3 32 -7 5 -3 8 8 8 17 0 17 2 -5 23 -14 12 -35 39 -48 60 -24 40 -33 44 -49
25z"/>
<path d="M3039 2933 c-13 -16 -12 -17 4 -4 16 13 21 21 13 21 -2 0 -10 -8 -17
-17z"/>
<path d="M3300 2888 c0 -13 -3 -34 -6 -48 -4 -18 -3 -21 4 -10 16 25 25 80 13
80 -6 0 -11 -10 -11 -22z"/>
<path d="M2950 2882 c-14 -9 -26 -25 -27 -36 0 -10 2 -14 6 -10 3 5 17 21 30
37 28 31 26 34 -9 9z"/>
<path d="M3401 2870 c0 -8 4 -22 9 -30 12 -18 12 -2 0 25 -6 13 -9 15 -9 5z"/>
<path d="M3261 2806 c-7 -8 -25 -17 -39 -19 -25 -4 -25 -4 4 -6 29 -1 64 22
52 34 -3 3 -11 -1 -17 -9z"/>
<path d="M2225 2770 c3 -5 11 -10 16 -10 6 0 7 5 4 10 -3 6 -11 10 -16 10 -6
0 -7 -4 -4 -10z"/>
<path d="M3712 2750 c0 -14 2 -19 5 -12 2 6 2 18 0 25 -3 6 -5 1 -5 -13z"/>
<path d="M3441 2750 c-157 -37 -182 -255 -37 -321 73 -33 145 -20 198 37 86
93 47 245 -72 278 -45 13 -55 14 -89 6z m102 -104 c6 -16 -44 -33 -63 -21 -15
10 -12 23 8 28 34 9 50 7 55 -7z m-22 -42 c-46 -20 -120 -33 -127 -23 -3 5 -2
9 3 10 45 4 87 11 105 19 38 15 55 9 19 -6z m109 -23 c0 -22 -80 -46 -92 -28
-14 21 -8 37 12 37 18 0 19 -3 10 -20 -9 -16 -8 -18 5 -14 8 4 15 15 15 25 0
12 5 16 15 13 8 -4 15 -1 15 6 0 6 5 8 10 5 6 -3 10 -14 10 -24z m-285 9 c-3
-5 -12 -10 -18 -10 -7 0 -6 4 3 10 19 12 23 12 15 0z m178 -24 c8 -20 -20 -43
-35 -28 -14 14 -3 42 16 42 7 0 16 -6 19 -14z m-43 -36 c0 -5 -11 -7 -25 -6
-17 1 -23 6 -20 14 3 8 5 18 5 24 0 6 9 3 20 -7 11 -10 20 -21 20 -25z m-60 4
c0 -14 -4 -23 -10 -19 -5 3 -10 13 -10 21 0 9 -5 12 -12 8 -7 -4 -8 -3 -4 4
13 22 36 13 36 -14z m-50 1 c7 -9 10 -18 7 -22 -8 -7 -37 15 -37 28 0 14 16
11 30 -6z"/>
<path d="M3490 2560 c0 -5 5 -10 10 -10 6 0 10 5 10 10 0 6 -4 10 -10 10 -5 0
-10 -4 -10 -10z"/>
<path d="M2527 2698 c13 -53 8 -149 -11 -207 -10 -29 -21 -49 -25 -44 -3 4
-19 14 -34 21 -15 7 -26 16 -23 21 3 4 -18 11 -47 15 l-52 6 -60 -63 c-67 -70
-105 -103 -90 -77 4 8 16 26 25 40 9 14 20 33 23 42 5 15 2 16 -18 8 -16 -6
-25 -6 -25 0 0 5 -7 7 -17 3 -14 -6 -13 -9 7 -25 28 -23 23 -23 -36 2 -26 11
-51 19 -55 18 -12 -5 29 -90 58 -120 31 -33 180 -83 218 -74 13 3 37 18 55 32
27 24 36 26 83 20 47 -6 292 15 355 31 22 5 23 8 15 77 -4 39 -8 88 -8 108 0
35 -1 36 -15 20 -8 -9 -32 -26 -52 -36 -21 -11 -38 -23 -38 -27 0 -4 -25 -17
-55 -28 -60 -22 -96 -17 -113 16 -9 17 -22 91 -37 206 -4 33 -11 47 -21 47
-13 0 -14 -6 -7 -32z"/>
<path d="M3703 2660 c0 -25 2 -35 4 -22 2 12 2 32 0 45 -2 12 -4 2 -4 -23z"/>
<path d="M3694 2515 c0 -55 1 -76 3 -47 2 29 2 74 0 100 -2 26 -3 2 -3 -53z"/>
<path d="M5040 2568 c0 -42 18 -98 32 -98 5 0 7 8 4 18 -3 9 -10 36 -15 60
-12 56 -21 65 -21 20z"/>
<path d="M3225 2543 c-3 -26 -9 -58 -12 -70 -3 -13 -1 -23 5 -23 9 0 27 128
19 137 -3 2 -8 -18 -12 -44z"/>
<path d="M5014 2540 c10 -39 24 -154 21 -165 -2 -5 -6 -23 -9 -40 -6 -28 -5
-29 9 -11 8 11 15 40 15 65 0 48 -23 157 -35 169 -3 4 -4 -4 -1 -18z"/>
<path d="M2130 2470 c0 -5 5 -10 11 -10 5 0 7 5 4 10 -3 6 -8 10 -11 10 -2 0
-4 -4 -4 -10z"/>
<path d="M3177 2428 c-10 -5 -25 -7 -33 -4 -8 3 -14 1 -14 -4 0 -14 57 -13 65
1 10 15 2 19 -18 7z"/>
<path d="M5070 2385 c0 -24 -10 -58 -26 -85 -25 -43 -26 -49 -19 -155 6 -92
23 -165 39 -165 2 0 4 38 5 83 1 46 5 97 10 113 4 16 6 36 3 44 -4 11 0 11 15
-3 21 -18 21 -18 17 55 -2 40 -9 75 -14 76 -6 2 -10 13 -10 25 0 12 -5 29 -10
37 -7 11 -10 5 -10 -25z"/>
<path d="M3651 2355 c-1 -37 4 -66 11 -73 10 -10 10 -15 -1 -21 -8 -6 -12 -19
-9 -35 3 -14 2 -26 -2 -26 -4 0 -10 -8 -14 -17 -3 -10 -9 -24 -12 -32 -4 -8 4
-5 16 7 13 12 32 24 42 28 21 6 21 8 7 54 -6 19 -16 67 -24 105 l-13 70 -1
-60z"/>
<path d="M3201 2205 c-2 -66 -5 -124 -6 -130 -2 -5 -3 -29 -4 -52 -1 -51 -28
-72 -67 -54 -19 8 -22 7 -17 -4 3 -10 19 -15 44 -15 46 0 52 -16 9 -22 -16 -3
-30 -1 -30 4 0 4 -4 8 -10 8 -5 0 -10 -9 -10 -20 0 -16 -4 -18 -17 -11 -45 22
-94 32 -107 22 -7 -6 -16 -8 -19 -4 -10 10 -8 -6 3 -27 31 -57 347 -107 617
-97 79 3 147 8 152 11 5 4 3 19 -5 36 -20 39 -7 62 54 101 25 16 42 29 36 29
-5 0 -29 -14 -54 -30 -25 -16 -48 -30 -52 -30 -19 0 -48 43 -48 70 0 18 -10
39 -25 54 -14 14 -26 38 -26 53 -1 18 -3 22 -6 10 -5 -20 17 -107 28 -107 4 0
9 -11 11 -25 3 -14 1 -25 -3 -25 -5 0 -8 -3 -7 -7 1 -5 -2 -22 -6 -40 -7 -32
-30 -45 -96 -58 -80 -15 -267 4 -305 31 -19 14 -20 31 -25 232 -5 182 -6 198
-9 97z"/>
<path d="M3780 2240 c0 -11 4 -20 9 -20 5 0 7 9 4 20 -3 11 -7 20 -9 20 -2 0
-4 -9 -4 -20z"/>
<path d="M3727 2229 c4 -13 8 -18 11 -10 2 7 -1 18 -6 23 -8 8 -9 4 -5 -13z"/>
<path d="M2904 2094 c-17 -42 -20 -63 -14 -90 10 -45 17 -51 34 -33 11 11 13
33 8 95 l-7 82 -21 -54z"/>
<path d="M2880 1875 c-6 -16 -8 -36 -4 -44 5 -11 9 -3 14 24 9 49 4 58 -10 20z"/>
<path d="M2931 1829 c-14 -40 -15 -189 -1 -189 6 0 10 7 10 15 0 19 -1 19 60
-11 28 -14 54 -24 56 -21 3 2 0 17 -6 32 -13 35 -3 94 21 121 19 20 18 20 -34
39 -28 10 -62 25 -73 32 -20 13 -23 12 -33 -18z"/>
<path d="M3256 1769 c50 -58 54 -172 7 -210 -15 -12 -16 -12 -11 2 26 68 29
96 18 137 -8 30 -18 46 -36 52 -27 11 -33 22 -6 14 14 -5 15 -4 2 5 -8 6 -23
8 -34 5 -12 -4 -16 -2 -12 5 5 7 -6 11 -32 11 -44 0 -80 -30 -84 -70 -2 -18 4
-28 27 -39 l30 -16 -27 -3 c-54 -6 -30 -72 42 -117 56 -35 113 -42 147 -19 20
14 53 20 113 24 l85 5 -3 70 c-5 129 0 122 -102 127 -71 4 -95 10 -122 29
l-33 23 31 -35z m-71 -13 c66 -28 86 -117 36 -166 -32 -33 -57 -31 -92 6 -26
28 -19 31 16 8 56 -37 109 14 82 79 -18 42 -81 76 -109 58 -29 -18 -35 -12 -9
9 28 24 32 24 76 6z"/>
<path d="M3204 1303 c20 -39 21 -53 3 -28 -14 17 -37 14 -37 -6 0 -11 52 -63
133 -133 32 -27 56 -54 54 -60 -2 -6 -26 -14 -53 -17 -44 -5 -41 -6 27 -7 59
-2 79 -6 92 -20 10 -10 17 -24 17 -30 0 -7 8 -12 18 -13 9 0 30 -2 47 -4 18
-3 25 -1 17 4 -10 6 -9 10 7 14 19 5 20 8 9 39 -17 50 -52 101 -90 132 -18 15
-41 34 -51 42 -9 8 -24 14 -32 14 -9 0 -25 16 -37 35 -23 40 -34 41 -19 4 7
-21 6 -25 -10 -25 -10 0 -19 4 -19 9 0 4 -4 6 -9 3 -5 -4 -26 13 -46 36 -34
39 -36 40 -21 11z"/>
<path d="M3171 914 c-1 -25 16 -34 66 -34 27 0 34 3 29 15 -3 10 1 15 14 15
10 0 22 5 25 10 4 6 -17 10 -54 10 -51 0 -61 -3 -62 -17 0 -15 -2 -15 -9 2 -8
19 -9 19 -9 -1z"/>
<path d="M4050 918 c-35 -14 -232 -71 -247 -71 -18 0 -16 -9 10 -43 12 -18 28
-29 36 -26 10 3 8 -4 -6 -22 -13 -16 -25 -53 -32 -94 -27 -182 -24 -197 35
-157 46 31 57 42 28 27 -15 -8 -24 -8 -32 0 -21 21 -13 36 23 49 36 14 48 32
18 28 -26 -3 -53 11 -53 27 0 20 31 32 68 27 17 -3 32 -1 32 4 0 6 -12 8 -26
5 -23 -4 -25 -2 -19 17 7 23 -4 28 -23 9 -9 -9 -12 -7 -12 10 0 26 33 46 61
37 11 -4 26 -1 34 5 8 7 44 11 87 10 88 -1 108 1 108 11 0 15 -19 19 -45 9
-15 -6 -32 -7 -38 -3 -15 10 -16 65 -2 75 6 4 -3 8 -18 8 l-29 0 42 35 c43 36
43 41 0 23z"/>
<path d="M3163 867 c2 -7 19 -16 39 -22 38 -11 68 -32 68 -47 0 -6 -6 -5 -14
1 -11 9 -20 10 -35 1 -25 -13 -26 -27 -4 -52 25 -28 4 -44 -38 -29 -17 6 -39
11 -48 11 -14 -1 -14 -2 2 -11 21 -13 22 -42 1 -60 -13 -11 -17 -10 -26 5 -6
10 -19 27 -29 37 -25 25 -48 25 -26 1 19 -21 22 -48 7 -57 -6 -4 -38 19 -71
49 -33 31 -65 56 -72 56 -6 0 1 -12 16 -26 19 -17 27 -34 26 -52 -4 -54 1 -72
19 -72 13 0 14 -2 4 -9 -19 -12 24 -177 47 -178 43 -2 215 19 338 42 147 27
199 41 208 56 8 11 -16 219 -24 219 -4 0 -18 -8 -31 -17 -35 -25 -123 -23
-181 4 -44 19 -48 20 -65 4 -10 -9 -7 -2 6 14 14 17 25 31 26 33 0 1 17 -5 37
-13 74 -31 197 -8 197 36 0 18 -2 18 -22 5 -59 -38 -186 -26 -229 20 -29 31
-53 45 -97 55 -23 5 -32 4 -29 -4z m-183 -227 l-8 -35 -1 31 c-1 17 2 34 6 37
11 12 12 3 3 -33z m338 -30 c35 -35 58 -50 77 -50 22 0 26 -4 23 -22 -2 -17
-11 -24 -31 -26 -21 -3 -39 8 -86 53 l-59 56 -82 -43 c-79 -41 -82 -42 -96
-23 -17 23 -13 27 46 49 25 10 63 30 85 45 47 33 52 31 123 -39z m-300 -135
c0 -16 -2 -15 -8 5 -11 34 -11 60 0 35 5 -11 8 -29 8 -40z m69 -2 c-3 -10 -5
-4 -5 12 0 17 2 24 5 18 2 -7 2 -21 0 -30z"/>
<path d="M4115 730 c-18 -8 -18 -9 6 -9 28 -1 49 -18 49 -39 0 -10 -8 -12 -27
-8 -27 6 -27 6 -9 -9 11 -8 25 -15 32 -15 10 0 24 -21 24 -37 0 -3 -10 -3 -22
0 -22 6 -23 6 -3 -8 11 -8 26 -20 34 -26 11 -10 12 -8 8 7 -3 10 -11 39 -17
63 -12 45 -37 92 -49 90 -3 0 -15 -4 -26 -9z"/>
<path d="M3761 430 c0 -36 2 -41 10 -27 7 12 7 27 0 45 -9 25 -9 24 -10 -18z"/>
<path d="M4277 338 c-33 -78 -32 -128 2 -128 32 0 81 22 74 33 -3 5 -5 28 -5
49 3 78 -45 108 -71 46z"/>
</g>
</svg>
